<svg width="60" height="61" viewBox="0 0 60 61" fill="none" xmlns="http://www.w3.org/2000/svg">
<path fill-rule="evenodd" clip-rule="evenodd" d="M50 2.73877C54.1423 2.73877 57.5 6.09664 57.5 10.2388V50.2388C57.5 54.381 54.1423 57.7388 50 57.7388H10C5.85788 57.7388 2.5 54.381 2.5 50.2388V10.2388C2.5 6.09664 5.85788 2.73877 10 2.73877H50ZM50 7.73877C51.3807 7.73877 52.5 8.85807 52.5 10.2388V50.2388C52.5 51.6195 51.3807 52.7388 50 52.7388H37.5V35.2385H42.6905C43.7665 35.2385 44.7218 34.55 45.0623 33.529L46.1697 30.2065C46.5745 28.9923 45.6707 27.7385 44.391 27.7385H37.5V22.7386C37.5 21.4886 38.75 20.2386 40 20.2386H45C46.3807 20.2386 47.5 19.1193 47.5 17.7386V16.0236C47.5 15.216 46.9842 14.492 46.2033 14.2859C42.9263 13.4211 40 13.4211 40 13.4211C33.75 13.4211 30 17.7386 30 21.4886V27.7385H25C23.6193 27.7385 22.5 28.8578 22.5 30.2385V32.7385C22.5 34.1193 23.6193 35.2385 25 35.2385H30V52.7388H10C8.6193 52.7388 7.5 51.6195 7.5 50.2388V10.2388C7.5 8.85807 8.6193 7.73877 10 7.73877H50Z" fill="#FDFCF7"/>
</svg>
