<svg width="60" height="61" viewBox="0 0 60 61" fill="none" xmlns="http://www.w3.org/2000/svg">
<path fill-rule="evenodd" clip-rule="evenodd" d="M30 45.2388C38.2843 45.2388 45 38.523 45 30.2388C45 21.9545 38.2843 15.2388 30 15.2388C21.7157 15.2388 15 21.9545 15 30.2388C15 38.523 21.7157 45.2388 30 45.2388ZM30 40.2388C35.5228 40.2388 40 35.7615 40 30.2388C40 24.7159 35.5228 20.2388 30 20.2388C24.4771 20.2388 20 24.7159 20 30.2388C20 35.7615 24.4771 40.2388 30 40.2388Z" fill="#FDFCF7"/>
<path d="M45 12.7388C43.6193 12.7388 42.5 13.8581 42.5 15.2388C42.5 16.6195 43.6193 17.7388 45 17.7388C46.3807 17.7388 47.5 16.6195 47.5 15.2388C47.5 13.8581 46.3807 12.7388 45 12.7388Z" fill="#FDFCF7"/>
<path fill-rule="evenodd" clip-rule="evenodd" d="M4.1349 10.9289C2.5 14.1376 2.5 18.338 2.5 26.7388V33.7388C2.5 42.1395 2.5 46.34 4.1349 49.5485C5.573 52.371 7.8677 54.6658 10.6902 56.1038C13.8988 57.7388 18.0992 57.7388 26.5 57.7388H33.5C41.9007 57.7388 46.1012 57.7388 49.3097 56.1038C52.1322 54.6658 54.427 52.371 55.865 49.5485C57.5 46.34 57.5 42.1395 57.5 33.7388V26.7388C57.5 18.338 57.5 14.1376 55.865 10.9289C54.427 8.10647 52.1322 5.81177 49.3097 4.37367C46.1012 2.73877 41.9007 2.73877 33.5 2.73877H26.5C18.0992 2.73877 13.8988 2.73877 10.6902 4.37367C7.8677 5.81177 5.573 8.10647 4.1349 10.9289ZM33.5 7.73877H26.5C22.2171 7.73877 19.3056 7.74267 17.0552 7.92652C14.8631 8.10562 13.7421 8.43024 12.9601 8.82869C11.0785 9.78744 9.54868 11.3172 8.58993 13.1989C8.19148 13.9809 7.86685 15.1019 7.68775 17.294C7.5039 19.5444 7.5 22.4559 7.5 26.7388V33.7388C7.5 38.0218 7.5039 40.933 7.68775 43.1835C7.86685 45.3758 8.19148 46.4968 8.58993 47.2788C9.54868 49.1603 11.0785 50.69 12.9601 51.6488C13.7421 52.0473 14.8631 52.372 17.0552 52.551C19.3056 52.7348 22.2171 52.7388 26.5 52.7388H33.5C37.783 52.7388 40.6943 52.7348 42.9448 52.551C45.137 52.372 46.258 52.0473 47.04 51.6488C48.9215 50.69 50.4512 49.1603 51.41 47.2788C51.8085 46.4968 52.1333 45.3758 52.3122 43.1835C52.496 40.933 52.5 38.0218 52.5 33.7388V26.7388C52.5 22.4559 52.496 19.5444 52.3122 17.294C52.1333 15.1019 51.8085 13.9809 51.41 13.1989C50.4512 11.3172 48.9215 9.78744 47.04 8.82869C46.258 8.43024 45.137 8.10562 42.9448 7.92652C40.6943 7.74267 37.783 7.73877 33.5 7.73877Z" fill="#FDFCF7"/>
</svg>
